<svg id="Layer_1" data-name="Layer 1" xmlns="http://www.w3.org/2000/svg" viewBox="0 0 957.46 620.31"><path d="M997.82,585.7c-5.64,1.21-10.25,2.91-14.9,3a111.86,111.86,0,0,1-21.49-1.25c-3.15-.52-4.66.19-6.21,2.26-16.27,21.7-36,39.9-57.77,55.82-9,6.56-18.93,12.08-30.48,13.63-15.7,2.12-25.61-11.27-22.58-24.31,2.05-8.82,4.9-17.45,6.77-24-3.29,3-8.4,7.72-13.53,12.41-14.31,13.07-28.65,26.18-45.79,35.48a55.54,55.54,0,0,1-17.66,5.58c-9.42,1.48-18.24-9-18.17-19.63.11-16.13,6.86-29.6,15.12-42.81A167.8,167.8,0,0,1,819,552.45c10-6.92,20.45-13.12,32.77-16S881.14,540,886,549.83c4.65,1.83,9,2.22,10.91,4.59,3,3.78,2.31,8.78-.56,13-6.52,9.56-13.2,19-19.66,28.63-8,11.86-14.24,24.63-17.06,38.66-1.9,9.46,3.36,13.4,12,8.91a189.84,189.84,0,0,0,29-17.88c10.43-8.07,20-17.36,29.37-26.66,6.05-6,11.2-12.91,16.61-19.53,1-1.17,2-3.07,1.71-4.36-1.51-7,1.08-12.61,5.07-17.88A157.59,157.59,0,0,1,963.34,545a11.28,11.28,0,0,1,6-3c8.93-1.55,12.27,2.5,9.13,11-2.55,6.9-5.46,13.67-8.25,20.61,8.68,3.12,16.67-1.32,25-3.58,5.38-1.47,10.75-3.49,16.23-3.92,7.13-.57,11.27,5.91,8.08,12.43-2.68,5.47-6.28,10.51-9.71,15.58-9.64,14.26-19.71,28.29-23.49,45.55-.32,1.48.08,3.12.15,4.68,1.72-.11,3.82.39,5.1-.42,12.44-7.81,25.23-15.19,37-23.95a479.37,479.37,0,0,0,75-68.74c6.84-7.83,13.59-15.75,20.68-23.35a33.79,33.79,0,0,1,8.39-6c3.82-2.13,8-2.71,11.39.79s3.48,7.93,1.38,12c-2.64,5.06-5.23,10.47-9.11,14.5-8,8.3-11,17.84-11,29.12,0,11.58-1,23.17-2,34.72-.43,4.83-2.17,9.55-3.62,15.59,5.54-2.68,10.9-4.63,15.54-7.66,11.88-7.75,23.66-15.71,35-24.19,4.11-3.06,7.1-7.72,10.31-11.88,15.16-19.65,31.56-38,54.8-48.33,9.71-4.3,19.89-8.34,31.08-5.49,9.36,2.39,13.65,8.12,13.1,17.88-.33,5.64.29,11.72-1.62,16.81-2.72,7.25-7.36,13.79-11.21,20.62-5,8.92-9.29,18.1-10.71,28.41-1.27,9.23,2.23,11.28,10.25,11.86a70.83,70.83,0,0,0,23.13-1.95q32.52-8.75,64.59-19.13c21.47-7,42.63-14.89,64-22.34q5.79-2,11.71-3.67c3.95-1.1,8.43.82,9,3.91.71,4.07-1.34,6.43-5.17,7.81-17.34,6.29-34.55,12.94-52,19-20.68,7.2-41.44,14.18-62.31,20.8-12.25,3.88-24.69,7.25-37.21,10.13-9.45,2.17-19.08,2.25-28.47-1.27-9-3.37-15.17-16.69-12.59-27.64a12.58,12.58,0,0,0,.35-5.79c-3.34,3.18-6.62,6.45-10,9.55-12.21,11.08-24.75,21.75-40.55,27.47-10.64,3.86-20.72.32-25-8.86-1.42-3.08-1.26-6.93-1.6-10.46-.15-1.57.25-3.2.52-5.94-6.55,4.19-12.19,7.87-17.9,11.44-13.36,8.37-27.33,15.32-42.74,19.22-7.42,1.88-14.53,5.57-22,6.46a28.88,28.88,0,0,1-25.74-9.88c-3.57-4-4-9.44-1.2-12.32,3.56-3.73,7.85-2.46,12-1,4.36,1.49,8.67,3.17,13.12,4.31,8.78,2.24,19.22-2.77,23.41-11a51,51,0,0,0,5.73-23.83c-.06-11.08,0-22.15,0-33.31-4.15,3.95-8.59,8.36-13.23,12.55-9.36,8.45-18.48,17.2-28.31,25.05-18.21,14.53-36.53,29-55.49,42.45-7.06,5-15.86,7.93-24.23,10.67-7.77,2.54-16.46-4.17-16.42-12.46a62.43,62.43,0,0,1,2.77-18c4.51-14.36,13.15-26.64,21.19-39.17C996.18,588.4,996.76,587.42,997.82,585.7ZM771.38,639c-.09,10.56,1.89,11.91,9,9.2a12.53,12.53,0,0,0,3.1-1.5C793.78,639,805,632.19,814.2,623.29c19-18.39,37-37.82,55.28-57,5.34-5.6,3.61-11-3.87-13.46-7.72-2.49-14.63-.81-21.82,3-28.72,15-50.57,37-66.09,65.14C774.19,627.31,772.8,634.84,771.38,639Zm494.16-86.12c-.87-6-3.75-7.92-10-6.66a68.54,68.54,0,0,0-31.19,15.52c-12.18,10.37-24.24,20.92-33.12,34.56-5.47,8.38-10,17.06-11.62,27-.85,5.17.82,6.83,5.94,5.52a33.84,33.84,0,0,0,7.3-3c14.26-7.56,25.71-18.72,37-29.92,10.54-10.5,20.21-21.89,30-33.13C1262.23,560,1263.65,556.22,1265.54,552.9Z" transform="translate(-481.27 -303.6)"/><path d="M640.25,594.14c7.17-2.75,14.47-5.21,21.48-8.32,19.19-8.51,38.67-16.51,57.26-26.18a434.84,434.84,0,0,0,67.45-43c12.63-9.88,25.2-19.87,37.15-30.54,15.76-14.07,28.92-30.49,40.8-47.95C874.68,423,883,406.94,886.24,388.81c3.83-21.5-1.35-39.25-23.52-53.23C847,325.66,829.31,321.63,811,319.75c-19.07-1.94-37.8-.48-56.6,2.91-27.94,5-54.09,15.11-79.83,26.64a389,389,0,0,0-63.73,36.45,411.07,411.07,0,0,0-48.89,40.59c-16.3,15.65-30.61,32.82-41.67,52.44A99.57,99.57,0,0,0,507,525.72a63.48,63.48,0,0,0,7.52,31.08c.71,1.39,0,4.81-1.07,5.49-1.82,1.11-5.06,1.68-6.76.75a15.28,15.28,0,0,1-5.77-6.46c-4.08-8.31-7-16.85-7.6-26.39-.95-15.88,2.77-30.57,8.47-45.12,6.48-16.54,16.33-31,27.57-44.45,10.36-12.38,21.11-24.61,33-35.47C575,393.54,589,383.23,603,373.07c19.52-14.22,40.53-26,62.46-36.22a388.86,388.86,0,0,1,70-25.39c12.89-3.23,26.26-4.63,39.46-6.54,17.51-2.54,35-1.16,52.25,2,9.83,1.82,19.38,5.33,28.93,8.45,14.18,4.64,25.26,13.7,34.64,25.08,6.63,8,9.54,17.61,10.72,27.61,3.23,27.22-5.86,51.19-21.24,72.89-10.73,15.13-21.72,30.32-34.43,43.75a365.19,365.19,0,0,1-43.08,38.17,541.2,541.2,0,0,1-54.38,37.2c-20,11.79-41,22.08-62.14,31.71-17.85,8.14-36.57,14.36-54.84,21.58a7.85,7.85,0,0,0-3.7,3.61c-9.47,18.94-19,37.86-28.1,57-7.72,16.16-15.08,32.5-22.4,48.85-6,13.25-11.87,26.52-17.31,40-4.5,11.13-8.21,22.58-12.42,33.83-1.25,3.33-2.26,7.54-6.88,7.37-2.12-.07-5.32-1.42-6-3.05a12.48,12.48,0,0,1-.2-8.5q9.63-25.36,19.94-50.46,10.88-26.26,22.45-52.25c5.57-12.48,11.66-24.73,17.58-37.05q15.84-33,31.76-65.9c6.31-13.07,12.39-26.26,19.06-39.15,8.41-16.27,17.27-32.31,26-48.4,9.77-17.94,19.41-36,29.53-53.69,8.8-15.42,18.18-30.52,27.35-45.73a57.71,57.71,0,0,1,4.14-5.72c3-3.83,6.41-2.45,9.62-.34,3.47,2.27,4.26,5.6,2.23,9.06-5.33,9.07-11.11,17.89-16.37,27-9.71,16.79-19.44,33.59-28.68,50.64-17,31.42-33.74,63-50.54,94.56-3.15,5.93-6.08,12-9.11,18Z" transform="translate(-481.27 -303.6)"/><path d="M1339.61,744.72c-19.35,0-38.71-.15-58.06,0-27.88.26-55.77.38-83.63,1.27-24,.77-48,2.48-72,3.9-14.48.86-29,1.7-43.42,3-19.88,1.85-39.73,4-59.57,6.29-18.38,2.07-36.76,4.22-55.08,6.7-14.74,2-29.43,4.39-44.08,6.9-26.14,4.49-52.32,8.82-78.34,13.93q-40,7.88-79.77,17.21c-17.9,4.2-35.58,9.37-53.24,14.51-26.26,7.63-52.56,15.2-78.57,23.6-16.58,5.36-32.77,11.95-49,18.42-13,5.18-25.9,10.62-38.49,16.68C530,885.07,513,892.13,500.7,906.32c-3,3.42-5,7.69-7.14,11.77-1.8,3.5-3.83,6.88-8.17,5.51-3.76-1.19-4.48-4.78-4-8.59,1.32-10,7-17.66,14.25-23.73A120.09,120.09,0,0,1,518,876.65C534.86,868,552,859.9,569.29,852c7.92-3.61,16.31-6.19,24.49-9.21,17-6.25,33.8-12.92,51-18.61,18-6,36.25-11.17,54.47-16.41q24.24-7,48.66-13.25c12.12-3.14,24.34-5.92,36.56-8.65,22.37-5,44.69-10.28,67.19-14.6,24.28-4.67,48.73-8.51,73.15-12.48,19.23-3.12,38.49-6.16,57.81-8.72,16.07-2.13,32.25-3.5,48.37-5.24,16.94-1.82,33.83-4,50.8-5.45,18.67-1.56,37.4-2.41,56.1-3.56,15.86-1,31.71-2.19,47.58-2.84,16-.66,32.1-.9,48.15-1.09q51.23-.6,102.44-.92c6.77,0,13.55.15,20.31.5,3.26.17,6.39,1,6.17,5.47s-2.88,7.6-7.4,7.81c-5.15.25-10.32.06-15.48.06Z" transform="translate(-481.27 -303.6)"/></svg>